<svg width="31" height="30" viewBox="0 0 31 30" fill="none" xmlns="http://www.w3.org/2000/svg">
<g clip-path="url(#clip0_0_56)">
<path d="M10.9508 0.98673C7.95335 2.02658 5.36834 4.00024 3.57548 6.61783C1.78262 9.23541 0.876419 12.3589 0.989976 15.5296C1.10353 18.7003 2.23087 21.751 4.20638 24.2336C6.1819 26.7162 8.90148 28.4999 11.9657 29.3227C14.4499 29.9637 17.0526 29.9918 19.55 29.4047C21.8125 28.8965 23.9042 27.8095 25.6203 26.25C27.4065 24.5774 28.7029 22.4496 29.3703 20.0953C30.0955 17.5351 30.2246 14.8428 29.7477 12.225H15.7977V18.0117H23.8766C23.7151 18.9347 23.3691 19.8155 22.8593 20.6017C22.3495 21.3878 21.6863 22.0629 20.9094 22.5867C19.923 23.2395 18.8109 23.6787 17.6446 23.8758C16.4749 24.0933 15.2752 24.0933 14.1055 23.8758C12.9199 23.631 11.7984 23.1416 10.8125 22.4391C9.22851 21.3178 8.03912 19.7248 7.4141 17.8875C6.77868 16.0157 6.77868 13.9866 7.4141 12.1149C7.859 10.8029 8.59449 9.6083 9.56566 8.62032C10.677 7.46895 12.0841 6.64594 13.6324 6.2416C15.1808 5.83725 16.8106 5.86719 18.343 6.32814C19.5402 6.69546 20.6349 7.33754 21.5399 8.20314C22.4508 7.29689 23.3602 6.38829 24.268 5.47735C24.7368 4.98751 25.2477 4.5211 25.7094 4.01954C24.3278 2.73404 22.7063 1.73369 20.9375 1.07579C17.7165 -0.093763 14.1922 -0.125194 10.9508 0.98673Z" fill="white"/>
<path d="M10.9508 0.986709C14.1918 -0.12597 17.7162 -0.0953667 20.9375 1.07343C22.7065 1.7358 24.3274 2.74096 25.707 4.03124C25.2383 4.5328 24.7437 5.00155 24.2656 5.48905C23.3562 6.39687 22.4476 7.30155 21.5398 8.20312C20.6349 7.33752 19.5401 6.69544 18.3429 6.32811C16.811 5.86555 15.1813 5.83388 13.6325 6.23657C12.0838 6.63927 10.6759 7.46076 9.56326 8.61093C8.59208 9.5989 7.8566 10.7935 7.41169 12.1055L2.5531 8.34374C4.29218 4.89506 7.30329 2.25708 10.9508 0.986709Z" fill="#E33629"/>
<path d="M1.26401 12.0703C1.52496 10.776 1.95852 9.52264 2.55307 8.34375L7.41166 12.1148C6.77625 13.9866 6.77625 16.0157 7.41166 17.8875C5.79291 19.1375 4.17338 20.3938 2.55307 21.6563C1.06514 18.6945 0.611349 15.3199 1.26401 12.0703Z" fill="#F8BD00"/>
<path d="M15.7977 12.2227H29.7477C30.2246 14.8405 30.0955 17.5328 29.3703 20.093C28.7029 22.4472 27.4065 24.575 25.6203 26.2477C24.0524 25.0242 22.4774 23.8102 20.9094 22.5867C21.6868 22.0624 22.3503 21.3865 22.8601 20.5995C23.37 19.8126 23.7157 18.9308 23.8766 18.007H15.7977C15.7953 16.0805 15.7977 14.1516 15.7977 12.2227Z" fill="#587DBD"/>
<path d="M2.55078 21.6563C4.17109 20.4063 5.79062 19.15 7.40937 17.8875C8.03564 19.7255 9.22673 21.3185 10.8125 22.4391C11.8014 23.1384 12.9254 23.6237 14.1125 23.8641C15.2822 24.0816 16.4819 24.0816 17.6516 23.8641C18.8179 23.6669 19.93 23.2278 20.9164 22.575C22.4844 23.7984 24.0594 25.0125 25.6273 26.236C23.9115 27.7962 21.8197 28.8841 19.557 29.393C17.0596 29.9801 14.4569 29.952 11.9727 29.3109C10.0079 28.7864 8.17268 27.8616 6.58203 26.5945C4.89858 25.2577 3.52352 23.5733 2.55078 21.6563Z" fill="#319F43"/>
</g>
<defs>
<clipPath id="clip0_0_56">
<rect width="30" height="30" fill="white" transform="translate(0.5)"/>
</clipPath>
</defs>
</svg>
