<svg width="31" height="31" viewBox="0 0 31 31" fill="none" xmlns="http://www.w3.org/2000/svg">
<path d="M12.7616 12.7617C12.3809 13.1165 12.0756 13.5443 11.8638 14.0196C11.652 14.4949 11.5381 15.0081 11.5289 15.5284C11.5197 16.0486 11.6155 16.5655 11.8103 17.048C12.0052 17.5305 12.2953 17.9688 12.6633 18.3368C13.0312 18.7047 13.4696 18.9948 13.9521 19.1897C14.4346 19.3846 14.9514 19.4803 15.4717 19.4711C15.992 19.4619 16.5051 19.348 16.9804 19.1363C17.4558 18.9245 17.8836 18.6191 18.2383 18.2384" stroke="#BBB1A9" stroke-width="2" stroke-linecap="round" stroke-linejoin="round"/>
<path d="M13.8594 6.56134C14.4036 6.49354 14.9514 6.45903 15.4998 6.45801C24.5415 6.45801 28.4165 15.4997 28.4165 15.4997C27.839 16.736 27.1147 17.8982 26.2594 18.9613" stroke="#BBB1A9" stroke-width="2" stroke-linecap="round" stroke-linejoin="round"/>
<path d="M8.53808 8.53809C5.96928 10.2878 3.91375 12.6911 2.5835 15.5002C2.5835 15.5002 6.4585 24.5418 15.5002 24.5418C17.9749 24.5485 20.3966 23.8251 22.4622 22.4623" stroke="#BBB1A9" stroke-width="2" stroke-linecap="round" stroke-linejoin="round"/>
<path d="M2.5835 2.58301L28.4168 28.4163" stroke="#BBB1A9" stroke-width="2" stroke-linecap="round" stroke-linejoin="round"/>
</svg>
