<svg width="31" height="32" viewBox="0 0 31 32" fill="none" xmlns="http://www.w3.org/2000/svg">
<path d="M4.23011 20.2569C3.13229 18.8307 2.58337 18.1175 2.58337 16C2.58337 13.8825 3.13229 13.1693 4.23011 11.7431C6.42216 8.89526 10.0984 5.66666 15.5 5.66666C20.9016 5.66666 24.5779 8.89526 26.77 11.7431C27.8678 13.1693 28.4167 13.8825 28.4167 16C28.4167 18.1175 27.8678 18.8307 26.77 20.2569C24.5779 23.1047 20.9016 26.3333 15.5 26.3333C10.0984 26.3333 6.42216 23.1047 4.23011 20.2569Z" stroke="#BBB1A9" stroke-width="2"/>
<path d="M19.375 16C19.375 18.1401 17.6401 19.875 15.5 19.875C13.3599 19.875 11.625 18.1401 11.625 16C11.625 13.8599 13.3599 12.125 15.5 12.125C17.6401 12.125 19.375 13.8599 19.375 16Z" stroke="#BBB1A9" stroke-width="2"/>
</svg>
