<svg width="61" height="61" viewBox="0 0 61 61" fill="none" xmlns="http://www.w3.org/2000/svg">
<path d="M30.9758 39.6797H32.8608L33.4658 42.5255H30.6866" stroke="black" stroke-width="0.625" stroke-linecap="round" stroke-linejoin="round"/>
<path d="M46.1317 36.9759L36.49 37.1534L32.8608 39.6801L33.1808 24.4867L35.1733 19.5417L44.8508 15.6992L46.4167 20.4667L44.9933 26.0884M46.1317 36.9759L44.2108 30.2992M46.1317 36.9759L44.3883 44.0559L37.2725 41.8501L33.4658 45.3009H30.9758M44.9933 26.0884L45.1358 28.9342L44.2108 30.2992M44.9933 26.0884L46.2383 25.8751M44.2108 30.2992L37.415 28.2942M46.2383 27.4401L45.0683 27.5826M33.0325 31.5367L39.6567 31.3892" stroke="black" stroke-width="0.625" stroke-linecap="round" stroke-linejoin="round"/>
<path d="M40.7058 37.0759L37.2725 41.8501M37.2725 41.8501L36.49 37.1534L39.6567 31.3892L37.415 28.2942L33.1808 24.4867L44.8508 15.6992M37.2725 41.8501L32.8608 39.6801" stroke="black" stroke-width="0.625" stroke-linecap="round" stroke-linejoin="round"/>
<path d="M35.1733 19.542H30.9758M31.0242 39.6803H29.1392L28.5342 42.5262H30.6867M33.875 35.2195L36.53 34.232L34.635 33.2445L33.875 35.2195Z" stroke="black" stroke-width="0.625" stroke-linecap="round" stroke-linejoin="round"/>
<path d="M15.8684 36.9759L25.51 37.1534L29.1392 39.6801L28.8192 24.4867L26.8267 19.5417L17.1492 15.6992L15.5834 20.4667L17.0067 26.0884M15.8684 36.9759L17.7892 30.2992M15.8684 36.9759L17.6117 44.0559L24.7275 41.8501L28.5342 45.3009H31.0242M17.0067 26.0884L16.8642 28.9342L17.7892 30.2992M17.0067 26.0884L15.7609 25.8751M17.7892 30.2992L24.585 28.2942M15.7609 27.4401L16.9317 27.5826M28.9675 31.5367L22.3434 31.3892" stroke="black" stroke-width="0.625" stroke-linecap="round" stroke-linejoin="round"/>
<path d="M21.2942 37.0759L24.7275 41.8501M24.7275 41.8501L25.51 37.1534L22.3433 31.3892L24.585 28.2942L28.8192 24.4867L17.1492 15.6992M24.7275 41.8501L29.1392 39.6801" stroke="black" stroke-width="0.625" stroke-linecap="round" stroke-linejoin="round"/>
<path d="M26.8266 19.542H31.0241M28.125 35.2195L25.47 34.232L27.365 33.2445L28.125 35.2195Z" stroke="black" stroke-width="0.625" stroke-linecap="round" stroke-linejoin="round"/>
<path d="M30.1667 59.3333C46.275 59.3333 59.3333 46.275 59.3333 30.1667C59.3333 14.0584 46.275 1 30.1667 1C14.0584 1 1 14.0584 1 30.1667C1 46.275 14.0584 59.3333 30.1667 59.3333Z" stroke="black" stroke-width="2" stroke-linecap="round" stroke-linejoin="round"/>
</svg>
