<svg width="215" height="143" viewBox="0 0 215 143" fill="none" xmlns="http://www.w3.org/2000/svg">
<path d="M31.9088 60.68C33.0288 60.68 33.8288 59.4 33.8288 57.96V39.64C33.8288 32.52 31.5888 21.48 20.0688 21.96C15.1888 22.84 11.3488 26.68 10.3088 31.64V58.04C10.3088 59.4 11.1888 60.68 12.2287 60.68H3.66875C4.70875 60.68 5.50875 59.4 5.50875 58.04V24.76C5.50875 23.4 4.70875 22.2 3.66875 22.2H10.3088V29.08C12.3088 24.36 16.7888 21 22.0688 21C22.6288 21 24.0688 21.16 24.2288 21.24C32.7888 22.6 38.6288 29.88 38.6288 40.84V58.04C38.6288 59.4 39.5088 60.68 40.5488 60.68H31.9088ZM66.5631 21.08C77.8431 21.08 86.9631 30.6 86.9631 41.4C86.9631 52.2 77.8431 61.72 66.5631 61.72C55.2831 61.72 46.1631 52.2 46.1631 41.4C46.1631 30.6 55.2831 21.08 66.5631 21.08ZM66.5631 60.84C75.1231 60.84 82.0831 51.8 82.0831 41.4C82.0831 31.08 75.1231 21.96 66.5631 21.96C57.9231 21.96 50.9631 31.08 50.9631 41.4C50.9631 51.8 57.9231 60.84 66.5631 60.84ZM122.16 26.2C130.48 34.12 130.32 47.96 121.92 55.8C118.08 59.48 111.36 61.08 104.56 60.6H99.84V78.76H95.04V24.76C95.04 23.4 94.24 22.12 93.2 22.12H99.84V25.88C100.24 24.76 100.8 23.88 101.52 23.24C102.64 22.12 104.08 21.48 106.16 21.32C113.44 20.44 118.48 22.6 122.16 26.2ZM105.76 59.88C130.8 55.64 126.64 22.6 107.2 22.04C107.2 22.04 107.2 22.04 107.12 22.04C104.8 22.12 103.2 22.68 102.08 23.72C100.64 25.08 99.92 27.48 99.84 31V59.88H105.76ZM169.566 60.68H162.926V53.16C162.526 53.96 162.046 54.76 161.406 55.64C160.046 57.32 158.286 58.6 155.966 59.64C150.446 62.6 142.206 62.28 138.366 59.08C130.046 52.04 135.726 38.2 145.086 35.4C149.886 33.96 153.006 34.28 155.406 34.76C157.966 35.16 160.046 36.04 161.646 37.48C162.126 37.88 162.526 38.36 162.926 38.84C162.846 34.76 162.046 25.32 154.926 22.84L155.006 22.92C153.246 22.36 151.326 22.12 149.246 22.12C143.886 22.12 139.886 23.88 137.326 27.4L136.766 26.92C139.406 23.24 143.646 21.32 149.246 21.32C152.766 21.32 155.726 22.04 158.206 23.4C159.486 24.04 160.846 24.76 161.966 25.72C165.486 28.76 167.406 33.48 167.726 38.12V58.04C167.726 59.4 168.526 60.68 169.566 60.68ZM160.766 55.16C162.046 53.64 162.606 52.04 162.926 50.68V40.28C162.526 39.48 161.886 38.76 161.166 38.04C159.486 36.52 157.166 35.64 154.286 35.4C145.886 35.4 139.966 42.36 139.326 48.44C138.766 54.2 142.046 60.92 149.566 60.6C154.686 59.88 158.526 58.04 160.766 55.16ZM204.586 22.12H211.226C210.186 22.12 209.386 23.4 209.386 24.76V49.88C209.706 72.6 205.146 76.52 198.186 78.04C196.666 78.44 183.946 81.88 178.106 69.08L178.826 68.76C181.386 74.36 186.506 77.96 191.706 77.96C195.786 77.64 200.266 75.96 202.026 72.36C203.866 68.52 204.426 60.84 204.586 54.6C202.506 58.84 198.186 61.8 193.226 61.8C192.666 61.8 191.226 61.64 191.146 61.64C182.506 60.2 176.666 52.92 176.666 41.96V24.76C176.666 23.4 175.866 22.12 174.826 22.12L183.386 22.2C182.346 22.2 181.466 23.4 181.466 24.84V43.16C181.466 50.28 183.706 61.32 195.226 60.84C199.546 60.04 203.146 56.92 204.586 52.76V22.12Z" fill="#524841"/>
<path d="M25.4297 107.129L25.1855 108.643C25.0488 109.476 24.8112 110.286 24.4727 111.074C24.1406 111.855 23.7044 112.559 23.1641 113.184C22.6302 113.809 21.9954 114.303 21.2598 114.668C20.5306 115.026 19.7005 115.202 18.7695 115.195C17.8646 115.189 17.1061 114.993 16.4941 114.609C15.8822 114.225 15.4069 113.717 15.0684 113.086C14.7298 112.448 14.5085 111.745 14.4043 110.977C14.3066 110.208 14.3164 109.434 14.4336 108.652L14.6777 107.139C14.8079 106.305 15.0423 105.498 15.3809 104.717C15.7259 103.929 16.1654 103.223 16.6992 102.598C17.2396 101.973 17.8743 101.481 18.6035 101.123C19.3392 100.758 20.1693 100.579 21.0938 100.586C22.0052 100.592 22.7637 100.788 23.3691 101.172C23.9811 101.556 24.4564 102.064 24.7949 102.695C25.1335 103.327 25.3516 104.03 25.4492 104.805C25.5469 105.573 25.5404 106.348 25.4297 107.129ZM24.0137 108.652L24.2676 107.109C24.3587 106.491 24.3815 105.866 24.3359 105.234C24.2969 104.596 24.1602 104.007 23.9258 103.467C23.6979 102.926 23.3496 102.49 22.8809 102.158C22.4186 101.826 21.8066 101.654 21.0449 101.641C20.2897 101.634 19.6126 101.787 19.0137 102.1C18.4212 102.406 17.9102 102.826 17.4805 103.359C17.0508 103.887 16.6992 104.476 16.4258 105.127C16.1589 105.778 15.9701 106.439 15.8594 107.109L15.6055 108.652C15.5143 109.264 15.4883 109.889 15.5273 110.527C15.5729 111.165 15.7096 111.755 15.9375 112.295C16.1719 112.835 16.5202 113.275 16.9824 113.613C17.4512 113.952 18.0599 114.128 18.8086 114.141C19.5833 114.154 20.2669 114.004 20.8594 113.691C21.4583 113.379 21.9727 112.959 22.4023 112.432C22.832 111.904 23.1803 111.312 23.4473 110.654C23.7142 109.997 23.903 109.329 24.0137 108.652ZM33.7598 112.51L35.1465 104.434H36.2988L34.4727 115H33.3691L33.7598 112.51ZM34.2773 110.605L34.8633 110.586C34.7656 111.224 34.5964 111.826 34.3555 112.393C34.1211 112.952 33.8118 113.444 33.4277 113.867C33.0436 114.29 32.5814 114.622 32.041 114.863C31.5007 115.098 30.8789 115.208 30.1758 115.195C29.5833 115.189 29.0918 115.078 28.7012 114.863C28.3105 114.648 28.0078 114.355 27.793 113.984C27.5781 113.607 27.4414 113.18 27.3828 112.705C27.3242 112.223 27.3275 111.719 27.3926 111.191L28.5449 104.434H29.6875L28.5352 111.221C28.4831 111.585 28.4668 111.943 28.4863 112.295C28.5124 112.64 28.5872 112.952 28.7109 113.232C28.8411 113.512 29.0365 113.737 29.2969 113.906C29.5638 114.076 29.9121 114.163 30.3418 114.17C31.0905 114.183 31.735 114.036 32.2754 113.73C32.8158 113.418 33.252 112.992 33.584 112.451C33.9225 111.911 34.1536 111.296 34.2773 110.605ZM43.1348 104.434L42.9785 105.391H37.8223L37.9883 104.434H43.1348ZM40.3418 101.719H41.4844L39.6484 112.441C39.6094 112.721 39.5996 112.992 39.6191 113.252C39.6452 113.512 39.7331 113.727 39.8828 113.896C40.0326 114.059 40.2767 114.144 40.6152 114.15C40.778 114.15 40.9375 114.141 41.0938 114.121C41.2565 114.095 41.416 114.072 41.5723 114.053L41.5234 115.049C41.3281 115.101 41.1328 115.137 40.9375 115.156C40.7422 115.182 40.5436 115.192 40.3418 115.186C39.7949 115.179 39.3815 115.046 39.1016 114.785C38.8216 114.525 38.6393 114.186 38.5547 113.77C38.4701 113.346 38.4603 112.897 38.5254 112.422L40.3418 101.719ZM45.498 115H44.3555L46.3574 103.32C46.4681 102.617 46.6927 102.002 47.0312 101.475C47.3698 100.941 47.8125 100.527 48.3594 100.234C48.9128 99.9349 49.554 99.7852 50.2832 99.7852C50.7324 99.7917 51.1719 99.8503 51.6016 99.9609C52.0378 100.065 52.4642 100.199 52.8809 100.361L52.5977 101.377C52.2331 101.208 51.862 101.077 51.4844 100.986C51.1133 100.895 50.7259 100.85 50.3223 100.85C49.5475 100.85 48.916 101.074 48.4277 101.523C47.946 101.973 47.6367 102.572 47.5 103.32L45.498 115ZM49.7266 104.434L49.5605 105.391H44.3164L44.4824 104.434H49.7266ZM52.8223 104.434L50.9961 115H49.8535L51.6797 104.434H52.8223ZM59.8145 104.434L59.6582 105.391H54.502L54.668 104.434H59.8145ZM57.0215 101.719H58.1641L56.3281 112.441C56.2891 112.721 56.2793 112.992 56.2988 113.252C56.3249 113.512 56.4128 113.727 56.5625 113.896C56.7122 114.059 56.9564 114.144 57.2949 114.15C57.4577 114.15 57.6172 114.141 57.7734 114.121C57.9362 114.095 58.0957 114.072 58.252 114.053L58.2031 115.049C58.0078 115.101 57.8125 115.137 57.6172 115.156C57.4219 115.182 57.2233 115.192 57.0215 115.186C56.4746 115.179 56.0612 115.046 55.7812 114.785C55.5013 114.525 55.319 114.186 55.2344 113.77C55.1497 113.346 55.14 112.897 55.2051 112.422L57.0215 101.719ZM67.0215 112.275C67.0996 111.807 67.0182 111.429 66.7773 111.143C66.5365 110.85 66.2207 110.625 65.8301 110.469C65.4395 110.306 65.0586 110.179 64.6875 110.088C64.2969 109.99 63.903 109.873 63.5059 109.736C63.1152 109.593 62.7604 109.414 62.4414 109.199C62.1224 108.978 61.875 108.701 61.6992 108.369C61.5234 108.037 61.4583 107.63 61.5039 107.148C61.5495 106.66 61.696 106.234 61.9434 105.869C62.1973 105.505 62.513 105.202 62.8906 104.961C63.2747 104.714 63.6882 104.531 64.1309 104.414C64.5801 104.297 65.026 104.238 65.4688 104.238C66.1133 104.245 66.6992 104.368 67.2266 104.609C67.7604 104.85 68.1771 105.205 68.4766 105.674C68.7826 106.136 68.9128 106.712 68.8672 107.402L67.7344 107.393C67.7734 106.93 67.6888 106.543 67.4805 106.23C67.2786 105.911 66.9954 105.671 66.6309 105.508C66.2728 105.339 65.8757 105.251 65.4395 105.244C65.0358 105.244 64.6322 105.309 64.2285 105.439C63.8314 105.57 63.4863 105.771 63.1934 106.045C62.9004 106.318 62.7181 106.673 62.6465 107.109C62.5879 107.454 62.6237 107.744 62.7539 107.979C62.8906 108.206 63.0827 108.392 63.3301 108.535C63.584 108.678 63.8574 108.796 64.1504 108.887C64.4434 108.978 64.7201 109.059 64.9805 109.131C65.5143 109.274 66.0384 109.46 66.5527 109.688C67.0671 109.915 67.4772 110.231 67.7832 110.635C68.0957 111.032 68.2194 111.556 68.1543 112.207C68.1087 112.728 67.9557 113.177 67.6953 113.555C67.4349 113.932 67.1061 114.245 66.709 114.492C66.3118 114.733 65.8789 114.909 65.4102 115.02C64.9414 115.137 64.4759 115.195 64.0137 115.195C63.3757 115.189 62.7702 115.068 62.1973 114.834C61.6309 114.6 61.1751 114.248 60.8301 113.779C60.485 113.311 60.3353 112.725 60.3809 112.021L61.5234 112.031C61.5104 112.526 61.6178 112.933 61.8457 113.252C62.0736 113.571 62.3796 113.805 62.7637 113.955C63.1543 114.105 63.5775 114.183 64.0332 114.189C64.4434 114.189 64.8633 114.124 65.293 113.994C65.7227 113.864 66.097 113.659 66.416 113.379C66.7415 113.099 66.9434 112.731 67.0215 112.275ZM78.2129 113.896L83.0469 104.443H84.3164L77.8809 116.699C77.7116 117.031 77.5228 117.35 77.3145 117.656C77.1061 117.969 76.8717 118.245 76.6113 118.486C76.3509 118.734 76.0547 118.926 75.7227 119.062C75.3971 119.206 75.0293 119.281 74.6191 119.287C74.4694 119.281 74.3164 119.264 74.1602 119.238C74.0039 119.219 73.8542 119.189 73.7109 119.15L73.7891 118.164C73.8867 118.177 73.9844 118.19 74.082 118.203C74.1732 118.223 74.2643 118.232 74.3555 118.232C74.7917 118.245 75.1693 118.164 75.4883 117.988C75.8073 117.819 76.084 117.588 76.3184 117.295C76.5592 117.002 76.7708 116.676 76.9531 116.318L78.2129 113.896ZM76.8652 104.424L78.584 113.555L78.6816 114.756L77.8027 115.225L75.6641 104.424H76.8652ZM84.3555 109.912L84.4043 109.59C84.502 108.9 84.6908 108.232 84.9707 107.588C85.2507 106.943 85.6152 106.37 86.0645 105.869C86.5202 105.361 87.054 104.961 87.666 104.668C88.278 104.375 88.9583 104.232 89.707 104.238C90.4492 104.245 91.0807 104.401 91.6016 104.707C92.1224 105.007 92.5391 105.41 92.8516 105.918C93.1706 106.426 93.3887 106.995 93.5059 107.627C93.623 108.252 93.6426 108.893 93.5645 109.551L93.5254 109.873C93.4277 110.563 93.2357 111.227 92.9492 111.865C92.6693 112.503 92.3014 113.076 91.8457 113.584C91.3965 114.085 90.8659 114.482 90.2539 114.775C89.6419 115.062 88.9616 115.202 88.2129 115.195C87.4772 115.189 86.8457 115.036 86.3184 114.736C85.7975 114.43 85.3809 114.027 85.0684 113.525C84.7559 113.018 84.541 112.451 84.4238 111.826C84.3066 111.201 84.2839 110.563 84.3555 109.912ZM85.5469 109.59L85.5078 109.912C85.4427 110.4 85.4395 110.895 85.498 111.396C85.5566 111.898 85.6901 112.36 85.8984 112.783C86.1133 113.2 86.4128 113.538 86.7969 113.799C87.181 114.059 87.6628 114.193 88.2422 114.199C88.8346 114.206 89.3685 114.085 89.8438 113.838C90.319 113.59 90.7292 113.258 91.0742 112.842C91.4258 112.419 91.709 111.95 91.9238 111.436C92.1387 110.915 92.2884 110.394 92.373 109.873L92.4121 109.551C92.4772 109.069 92.4772 108.577 92.4121 108.076C92.3535 107.568 92.2201 107.103 92.0117 106.68C91.8034 106.257 91.5072 105.915 91.123 105.654C90.7389 105.387 90.2572 105.251 89.6777 105.244C89.0853 105.231 88.5514 105.352 88.0762 105.605C87.6009 105.853 87.1908 106.188 86.8457 106.611C86.5007 107.035 86.2174 107.507 85.9961 108.027C85.7812 108.542 85.6315 109.062 85.5469 109.59ZM101.963 112.51L103.35 104.434H104.502L102.676 115H101.572L101.963 112.51ZM102.48 110.605L103.066 110.586C102.969 111.224 102.799 111.826 102.559 112.393C102.324 112.952 102.015 113.444 101.631 113.867C101.247 114.29 100.785 114.622 100.244 114.863C99.7038 115.098 99.082 115.208 98.3789 115.195C97.7865 115.189 97.2949 115.078 96.9043 114.863C96.5137 114.648 96.2109 114.355 95.9961 113.984C95.7812 113.607 95.6445 113.18 95.5859 112.705C95.5273 112.223 95.5306 111.719 95.5957 111.191L96.748 104.434H97.8906L96.7383 111.221C96.6862 111.585 96.6699 111.943 96.6895 112.295C96.7155 112.64 96.7904 112.952 96.9141 113.232C97.0443 113.512 97.2396 113.737 97.5 113.906C97.7669 114.076 98.1152 114.163 98.5449 114.17C99.2936 114.183 99.9382 114.036 100.479 113.73C101.019 113.418 101.455 112.992 101.787 112.451C102.126 111.911 102.357 111.296 102.48 110.605ZM117.471 112.9L119.707 100H120.85L118.252 115H117.188L117.471 112.9ZM110.889 109.863L110.918 109.658C111.016 109.02 111.182 108.382 111.416 107.744C111.65 107.1 111.963 106.51 112.354 105.977C112.744 105.443 113.216 105.016 113.77 104.697C114.329 104.378 114.977 104.225 115.713 104.238C116.292 104.245 116.8 104.368 117.236 104.609C117.673 104.844 118.034 105.163 118.32 105.566C118.613 105.97 118.825 106.426 118.955 106.934C119.092 107.435 119.144 107.956 119.111 108.496L118.691 111.104C118.574 111.663 118.376 112.191 118.096 112.686C117.816 113.18 117.471 113.62 117.061 114.004C116.657 114.382 116.195 114.678 115.674 114.893C115.16 115.107 114.606 115.208 114.014 115.195C113.304 115.189 112.725 115.016 112.275 114.678C111.833 114.339 111.497 113.903 111.27 113.369C111.042 112.835 110.902 112.259 110.85 111.641C110.804 111.022 110.817 110.43 110.889 109.863ZM112.09 109.648L112.061 109.854C111.995 110.296 111.966 110.765 111.973 111.26C111.979 111.755 112.051 112.223 112.188 112.666C112.331 113.102 112.568 113.46 112.9 113.74C113.232 114.02 113.685 114.167 114.258 114.18C114.824 114.186 115.365 114.069 115.879 113.828C116.393 113.581 116.842 113.242 117.227 112.812C117.617 112.383 117.891 111.898 118.047 111.357L118.574 108.311C118.6 107.9 118.551 107.513 118.428 107.148C118.311 106.784 118.132 106.462 117.891 106.182C117.65 105.902 117.357 105.68 117.012 105.518C116.673 105.348 116.296 105.264 115.879 105.264C115.286 105.251 114.769 105.378 114.326 105.645C113.89 105.905 113.519 106.253 113.213 106.689C112.907 107.119 112.663 107.594 112.48 108.115C112.298 108.63 112.168 109.141 112.09 109.648ZM121.504 109.912L121.553 109.59C121.65 108.9 121.839 108.232 122.119 107.588C122.399 106.943 122.764 106.37 123.213 105.869C123.669 105.361 124.202 104.961 124.814 104.668C125.426 104.375 126.107 104.232 126.855 104.238C127.598 104.245 128.229 104.401 128.75 104.707C129.271 105.007 129.688 105.41 130 105.918C130.319 106.426 130.537 106.995 130.654 107.627C130.771 108.252 130.791 108.893 130.713 109.551L130.674 109.873C130.576 110.563 130.384 111.227 130.098 111.865C129.818 112.503 129.45 113.076 128.994 113.584C128.545 114.085 128.014 114.482 127.402 114.775C126.79 115.062 126.11 115.202 125.361 115.195C124.626 115.189 123.994 115.036 123.467 114.736C122.946 114.43 122.529 114.027 122.217 113.525C121.904 113.018 121.689 112.451 121.572 111.826C121.455 111.201 121.432 110.563 121.504 109.912ZM122.695 109.59L122.656 109.912C122.591 110.4 122.588 110.895 122.646 111.396C122.705 111.898 122.839 112.36 123.047 112.783C123.262 113.2 123.561 113.538 123.945 113.799C124.329 114.059 124.811 114.193 125.391 114.199C125.983 114.206 126.517 114.085 126.992 113.838C127.467 113.59 127.878 113.258 128.223 112.842C128.574 112.419 128.857 111.95 129.072 111.436C129.287 110.915 129.437 110.394 129.521 109.873L129.561 109.551C129.626 109.069 129.626 108.577 129.561 108.076C129.502 107.568 129.368 107.103 129.16 106.68C128.952 106.257 128.656 105.915 128.271 105.654C127.887 105.387 127.406 105.251 126.826 105.244C126.234 105.231 125.7 105.352 125.225 105.605C124.749 105.853 124.339 106.188 123.994 106.611C123.649 107.035 123.366 107.507 123.145 108.027C122.93 108.542 122.78 109.062 122.695 109.59ZM134.678 106.738L133.252 115H132.109L133.936 104.434H135.029L134.678 106.738ZM134.043 109.062L133.584 108.77C133.714 108.197 133.913 107.64 134.18 107.1C134.447 106.553 134.779 106.064 135.176 105.635C135.579 105.199 136.042 104.857 136.562 104.609C137.09 104.355 137.676 104.232 138.32 104.238C138.9 104.245 139.378 104.352 139.756 104.561C140.14 104.762 140.436 105.046 140.645 105.41C140.853 105.768 140.983 106.182 141.035 106.65C141.094 107.113 141.087 107.604 141.016 108.125L139.854 115H138.701L139.883 108.105C139.954 107.598 139.951 107.129 139.873 106.699C139.801 106.263 139.619 105.915 139.326 105.654C139.033 105.387 138.594 105.254 138.008 105.254C137.487 105.247 137.008 105.355 136.572 105.576C136.136 105.791 135.745 106.084 135.4 106.455C135.062 106.82 134.775 107.23 134.541 107.686C134.313 108.135 134.147 108.594 134.043 109.062ZM144.453 102.725L146.689 100.01H148.135L145.527 102.725H144.453ZM153.955 104.434L153.799 105.391H148.643L148.809 104.434H153.955ZM151.162 101.719H152.305L150.469 112.441C150.43 112.721 150.42 112.992 150.439 113.252C150.465 113.512 150.553 113.727 150.703 113.896C150.853 114.059 151.097 114.144 151.436 114.15C151.598 114.15 151.758 114.141 151.914 114.121C152.077 114.095 152.236 114.072 152.393 114.053L152.344 115.049C152.148 115.101 151.953 115.137 151.758 115.156C151.562 115.182 151.364 115.192 151.162 115.186C150.615 115.179 150.202 115.046 149.922 114.785C149.642 114.525 149.46 114.186 149.375 113.77C149.29 113.346 149.281 112.897 149.346 112.422L151.162 101.719ZM161.846 106.67L160.4 115H159.258L161.074 104.434H162.178L161.846 106.67ZM161.23 109.062L160.732 108.77C160.863 108.184 161.058 107.62 161.318 107.08C161.579 106.533 161.904 106.045 162.295 105.615C162.692 105.186 163.151 104.847 163.672 104.6C164.199 104.352 164.792 104.232 165.449 104.238C166.009 104.245 166.478 104.346 166.855 104.541C167.24 104.73 167.542 104.997 167.764 105.342C167.985 105.68 168.128 106.074 168.193 106.523C168.265 106.973 168.268 107.454 168.203 107.969L167.012 115H165.869L167.061 107.998C167.139 107.484 167.129 107.021 167.031 106.611C166.934 106.195 166.729 105.866 166.416 105.625C166.104 105.378 165.661 105.251 165.088 105.244C164.548 105.244 164.062 105.352 163.633 105.566C163.203 105.781 162.829 106.071 162.51 106.436C162.191 106.8 161.924 107.21 161.709 107.666C161.501 108.122 161.341 108.587 161.23 109.062ZM168.213 108.145L167.422 108.154C167.546 107.614 167.744 107.106 168.018 106.631C168.291 106.149 168.63 105.729 169.033 105.371C169.437 105.013 169.889 104.733 170.391 104.531C170.898 104.329 171.445 104.232 172.031 104.238C172.617 104.238 173.105 104.342 173.496 104.551C173.887 104.753 174.189 105.033 174.404 105.391C174.626 105.742 174.769 106.152 174.834 106.621C174.899 107.09 174.896 107.588 174.824 108.115L173.652 115H172.5L173.672 108.096C173.75 107.575 173.747 107.1 173.662 106.67C173.577 106.234 173.379 105.889 173.066 105.635C172.76 105.374 172.311 105.247 171.719 105.254C171.289 105.254 170.882 105.329 170.498 105.479C170.12 105.622 169.779 105.827 169.473 106.094C169.167 106.354 168.903 106.66 168.682 107.012C168.467 107.357 168.311 107.734 168.213 108.145ZM179.629 104.434L177.803 115H176.66L178.486 104.434H179.629ZM178.818 101.387C178.825 101.165 178.906 100.977 179.062 100.82C179.219 100.664 179.408 100.586 179.629 100.586C179.857 100.579 180.042 100.654 180.186 100.811C180.335 100.967 180.4 101.156 180.381 101.377C180.374 101.592 180.29 101.777 180.127 101.934C179.964 102.083 179.775 102.158 179.561 102.158C179.339 102.165 179.157 102.093 179.014 101.943C178.87 101.794 178.805 101.608 178.818 101.387ZM183.447 106.738L182.021 115H180.879L182.705 104.434H183.799L183.447 106.738ZM182.812 109.062L182.354 108.77C182.484 108.197 182.682 107.64 182.949 107.1C183.216 106.553 183.548 106.064 183.945 105.635C184.349 105.199 184.811 104.857 185.332 104.609C185.859 104.355 186.445 104.232 187.09 104.238C187.669 104.245 188.148 104.352 188.525 104.561C188.91 104.762 189.206 105.046 189.414 105.41C189.622 105.768 189.753 106.182 189.805 106.65C189.863 107.113 189.857 107.604 189.785 108.125L188.623 115H187.471L188.652 108.105C188.724 107.598 188.721 107.129 188.643 106.699C188.571 106.263 188.389 105.915 188.096 105.654C187.803 105.387 187.363 105.254 186.777 105.254C186.257 105.247 185.778 105.355 185.342 105.576C184.906 105.791 184.515 106.084 184.17 106.455C183.831 106.82 183.545 107.23 183.311 107.686C183.083 108.135 182.917 108.594 182.812 109.062ZM198.564 112.9L200.801 100H201.943L199.346 115H198.281L198.564 112.9ZM191.982 109.863L192.012 109.658C192.109 109.02 192.275 108.382 192.51 107.744C192.744 107.1 193.057 106.51 193.447 105.977C193.838 105.443 194.31 105.016 194.863 104.697C195.423 104.378 196.071 104.225 196.807 104.238C197.386 104.245 197.894 104.368 198.33 104.609C198.766 104.844 199.128 105.163 199.414 105.566C199.707 105.97 199.919 106.426 200.049 106.934C200.186 107.435 200.238 107.956 200.205 108.496L199.785 111.104C199.668 111.663 199.469 112.191 199.189 112.686C198.91 113.18 198.564 113.62 198.154 114.004C197.751 114.382 197.288 114.678 196.768 114.893C196.253 115.107 195.7 115.208 195.107 115.195C194.398 115.189 193.818 115.016 193.369 114.678C192.926 114.339 192.591 113.903 192.363 113.369C192.135 112.835 191.995 112.259 191.943 111.641C191.898 111.022 191.911 110.43 191.982 109.863ZM193.184 109.648L193.154 109.854C193.089 110.296 193.06 110.765 193.066 111.26C193.073 111.755 193.145 112.223 193.281 112.666C193.424 113.102 193.662 113.46 193.994 113.74C194.326 114.02 194.779 114.167 195.352 114.18C195.918 114.186 196.458 114.069 196.973 113.828C197.487 113.581 197.936 113.242 198.32 112.812C198.711 112.383 198.984 111.898 199.141 111.357L199.668 108.311C199.694 107.9 199.645 107.513 199.521 107.148C199.404 106.784 199.225 106.462 198.984 106.182C198.743 105.902 198.451 105.68 198.105 105.518C197.767 105.348 197.389 105.264 196.973 105.264C196.38 105.251 195.863 105.378 195.42 105.645C194.984 105.905 194.613 106.253 194.307 106.689C194.001 107.119 193.757 107.594 193.574 108.115C193.392 108.63 193.262 109.141 193.184 109.648ZM80.2246 129.514L78.0566 142.062H76.9043L79.4336 127.434H80.5078L80.2246 129.514ZM86.8066 132.59L86.7773 132.795C86.6797 133.42 86.5137 134.051 86.2793 134.689C86.0514 135.327 85.7454 135.913 85.3613 136.447C84.9772 136.981 84.5085 137.411 83.9551 137.736C83.4082 138.055 82.7669 138.208 82.0312 138.195C81.4844 138.195 80.9863 138.091 80.5371 137.883C80.0879 137.668 79.707 137.378 79.3945 137.014C79.082 136.643 78.8477 136.216 78.6914 135.734C78.5352 135.253 78.4733 134.742 78.5059 134.201L78.9355 131.506C79.0658 130.939 79.2708 130.399 79.5508 129.885C79.8307 129.37 80.1758 128.911 80.5859 128.508C81.0026 128.104 81.4714 127.792 81.9922 127.57C82.5195 127.342 83.0859 127.232 83.6914 127.238C84.4206 127.245 85.0098 127.414 85.459 127.746C85.9082 128.078 86.2435 128.511 86.4648 129.045C86.6862 129.579 86.8164 130.158 86.8555 130.783C86.901 131.402 86.8848 132.004 86.8066 132.59ZM85.625 132.795L85.6543 132.58C85.7194 132.137 85.7454 131.669 85.7324 131.174C85.7194 130.673 85.638 130.204 85.4883 129.768C85.3451 129.331 85.1074 128.973 84.7754 128.693C84.4434 128.407 83.9844 128.26 83.3984 128.254C82.9557 128.247 82.5293 128.326 82.1191 128.488C81.7155 128.645 81.3444 128.863 81.0059 129.143C80.6673 129.423 80.3743 129.748 80.127 130.119C79.8861 130.49 79.7103 130.887 79.5996 131.311L79.0527 134.445C79.0332 134.973 79.1504 135.445 79.4043 135.861C79.6582 136.271 79.9967 136.597 80.4199 136.838C80.8496 137.072 81.3151 137.193 81.8164 137.199C82.4154 137.206 82.9329 137.079 83.3691 136.818C83.8118 136.551 84.1829 136.2 84.4824 135.764C84.7884 135.321 85.0326 134.842 85.2148 134.328C85.4036 133.807 85.5404 133.296 85.625 132.795ZM94.9707 136.105L95.8789 130.646C95.9505 130.145 95.9049 129.715 95.7422 129.357C95.5859 128.993 95.332 128.716 94.9805 128.527C94.6354 128.332 94.209 128.231 93.7012 128.225C93.252 128.218 92.8092 128.296 92.373 128.459C91.9368 128.622 91.556 128.859 91.2305 129.172C90.9115 129.484 90.6999 129.875 90.5957 130.344L89.4531 130.334C89.5247 129.833 89.7005 129.39 89.9805 129.006C90.2604 128.615 90.6055 128.29 91.0156 128.029C91.4323 127.762 91.8815 127.564 92.3633 127.434C92.8451 127.297 93.3203 127.232 93.7891 127.238C94.4857 127.238 95.0911 127.378 95.6055 127.658C96.1198 127.932 96.5039 128.326 96.7578 128.84C97.0182 129.348 97.1029 129.96 97.0117 130.676L96.1523 135.783C96.0938 136.128 96.0547 136.48 96.0352 136.838C96.0156 137.189 96.0417 137.535 96.1133 137.873L96.1035 138H94.9121C94.8665 137.688 94.8503 137.372 94.8633 137.053C94.8828 136.734 94.9186 136.418 94.9707 136.105ZM95.957 131.848L95.8301 132.746H93.6719C93.2682 132.746 92.8418 132.782 92.3926 132.854C91.9434 132.925 91.5137 133.049 91.1035 133.225C90.6934 133.4 90.3451 133.645 90.0586 133.957C89.7721 134.263 89.5898 134.654 89.5117 135.129C89.4466 135.539 89.4922 135.897 89.6484 136.203C89.8112 136.503 90.0488 136.737 90.3613 136.906C90.6738 137.069 91.0254 137.154 91.416 137.16C91.9889 137.167 92.5326 137.062 93.0469 136.848C93.5612 136.626 94.0202 136.32 94.4238 135.93C94.8275 135.539 95.1432 135.083 95.3711 134.562L95.7715 135.246C95.5957 135.689 95.3483 136.096 95.0293 136.467C94.7168 136.831 94.3587 137.144 93.9551 137.404C93.5514 137.658 93.1185 137.857 92.6562 138C92.194 138.137 91.7253 138.205 91.25 138.205C90.6706 138.192 90.1497 138.065 89.6875 137.824C89.2318 137.583 88.877 137.242 88.623 136.799C88.3691 136.356 88.2747 135.835 88.3398 135.236C88.4115 134.598 88.6133 134.064 88.9453 133.635C89.2839 133.199 89.7038 132.85 90.2051 132.59C90.7064 132.329 91.2467 132.141 91.8262 132.023C92.4056 131.906 92.9688 131.848 93.5156 131.848H95.957ZM101.855 136.896L106.689 127.443H107.959L101.523 139.699C101.354 140.031 101.165 140.35 100.957 140.656C100.749 140.969 100.514 141.245 100.254 141.486C99.9935 141.734 99.6973 141.926 99.3652 142.062C99.0397 142.206 98.6719 142.281 98.2617 142.287C98.112 142.281 97.959 142.264 97.8027 142.238C97.6465 142.219 97.4967 142.189 97.3535 142.15L97.4316 141.164C97.5293 141.177 97.627 141.19 97.7246 141.203C97.8158 141.223 97.9069 141.232 97.998 141.232C98.4342 141.245 98.8118 141.164 99.1309 140.988C99.4499 140.819 99.7266 140.588 99.9609 140.295C100.202 140.002 100.413 139.676 100.596 139.318L101.855 136.896ZM100.508 127.424L102.227 136.555L102.324 137.756L101.445 138.225L99.3066 127.424H100.508ZM110.986 127.434L109.16 138H108.018L109.844 127.434H110.986ZM110.176 124.387C110.182 124.165 110.264 123.977 110.42 123.82C110.576 123.664 110.765 123.586 110.986 123.586C111.214 123.579 111.4 123.654 111.543 123.811C111.693 123.967 111.758 124.156 111.738 124.377C111.732 124.592 111.647 124.777 111.484 124.934C111.322 125.083 111.133 125.158 110.918 125.158C110.697 125.165 110.514 125.093 110.371 124.943C110.228 124.794 110.163 124.608 110.176 124.387ZM114.805 129.738L113.379 138H112.236L114.062 127.434H115.156L114.805 129.738ZM114.17 132.062L113.711 131.77C113.841 131.197 114.04 130.64 114.307 130.1C114.574 129.553 114.906 129.064 115.303 128.635C115.706 128.199 116.169 127.857 116.689 127.609C117.217 127.355 117.803 127.232 118.447 127.238C119.027 127.245 119.505 127.352 119.883 127.561C120.267 127.762 120.563 128.046 120.771 128.41C120.98 128.768 121.11 129.182 121.162 129.65C121.221 130.113 121.214 130.604 121.143 131.125L119.98 138H118.828L120.01 131.105C120.081 130.598 120.078 130.129 120 129.699C119.928 129.263 119.746 128.915 119.453 128.654C119.16 128.387 118.721 128.254 118.135 128.254C117.614 128.247 117.135 128.355 116.699 128.576C116.263 128.791 115.872 129.084 115.527 129.455C115.189 129.82 114.902 130.23 114.668 130.686C114.44 131.135 114.274 131.594 114.17 132.062ZM131.465 127.434H132.539L130.762 137.814C130.625 138.641 130.348 139.39 129.932 140.061C129.515 140.731 128.968 141.262 128.291 141.652C127.62 142.043 126.846 142.232 125.967 142.219C125.505 142.212 125.065 142.134 124.648 141.984C124.232 141.841 123.848 141.633 123.496 141.359C123.151 141.092 122.855 140.767 122.607 140.383L123.311 139.689C123.617 140.152 123.984 140.52 124.414 140.793C124.844 141.066 125.345 141.21 125.918 141.223C126.595 141.229 127.188 141.086 127.695 140.793C128.21 140.5 128.626 140.096 128.945 139.582C129.271 139.074 129.489 138.498 129.6 137.854L130.996 129.719L131.465 127.434ZM123.35 132.863L123.379 132.648C123.47 132.01 123.633 131.372 123.867 130.734C124.102 130.096 124.411 129.51 124.795 128.977C125.186 128.443 125.658 128.02 126.211 127.707C126.771 127.388 127.422 127.232 128.164 127.238C128.743 127.245 129.251 127.368 129.688 127.609C130.124 127.844 130.485 128.163 130.771 128.566C131.064 128.97 131.276 129.426 131.406 129.934C131.543 130.435 131.595 130.956 131.562 131.496L131.143 134.104C131.025 134.663 130.827 135.191 130.547 135.686C130.267 136.18 129.922 136.62 129.512 137.004C129.102 137.382 128.639 137.678 128.125 137.893C127.611 138.107 127.057 138.208 126.465 138.195C125.749 138.189 125.166 138.016 124.717 137.678C124.274 137.339 123.939 136.903 123.711 136.369C123.49 135.835 123.353 135.259 123.301 134.641C123.255 134.022 123.271 133.43 123.35 132.863ZM124.531 132.648L124.502 132.854C124.437 133.296 124.408 133.765 124.414 134.26C124.427 134.755 124.502 135.223 124.639 135.666C124.782 136.102 125.016 136.46 125.342 136.74C125.674 137.02 126.13 137.163 126.709 137.17C127.269 137.183 127.806 137.069 128.32 136.828C128.835 136.581 129.281 136.242 129.658 135.812C130.042 135.383 130.316 134.898 130.479 134.357L130.996 131.311C131.022 130.9 130.977 130.513 130.859 130.148C130.742 129.784 130.563 129.462 130.322 129.182C130.088 128.895 129.801 128.671 129.463 128.508C129.124 128.345 128.747 128.264 128.33 128.264C127.731 128.251 127.21 128.378 126.768 128.645C126.331 128.905 125.96 129.253 125.654 129.689C125.355 130.126 125.111 130.604 124.922 131.125C124.74 131.639 124.609 132.147 124.531 132.648ZM133.682 137.287C133.688 137.066 133.773 136.874 133.936 136.711C134.098 136.548 134.294 136.464 134.521 136.457C134.756 136.457 134.948 136.535 135.098 136.691C135.247 136.848 135.316 137.043 135.303 137.277C135.29 137.505 135.202 137.697 135.039 137.854C134.876 138.01 134.681 138.088 134.453 138.088C134.219 138.094 134.027 138.023 133.877 137.873C133.727 137.717 133.662 137.521 133.682 137.287Z" fill="#524841"/>
</svg>
