<svg width="358" height="62" viewBox="0 0 358 62" fill="none" xmlns="http://www.w3.org/2000/svg">
<path d="M28.7584 40.68C29.8784 40.68 30.6784 39.4 30.6784 37.96V19.64C30.6784 12.52 28.4384 1.48 16.9184 1.96C12.0384 2.84 8.19836 6.68 7.15836 11.64V38.04C7.15836 39.4 8.03836 40.68 9.07836 40.68H0.51836C1.55836 40.68 2.35836 39.4 2.35836 38.04V4.76C2.35836 3.4 1.55836 2.2 0.51836 2.2H7.15836V9.08C9.15836 4.36 13.6384 1 18.9184 1C19.4784 1 20.9184 1.16 21.0784 1.24C29.6384 2.6 35.4784 9.88 35.4784 20.84V38.04C35.4784 39.4 36.3584 40.68 37.3984 40.68H28.7584ZM63.4127 1.08C74.6927 1.08 83.8127 10.6 83.8127 21.4C83.8127 32.2 74.6927 41.72 63.4127 41.72C52.1327 41.72 43.0127 32.2 43.0127 21.4C43.0127 10.6 52.1327 1.08 63.4127 1.08ZM63.4127 40.84C71.9727 40.84 78.9327 31.8 78.9327 21.4C78.9327 11.08 71.9727 1.96 63.4127 1.96C54.7727 1.96 47.8127 11.08 47.8127 21.4C47.8127 31.8 54.7727 40.84 63.4127 40.84ZM119.01 6.2C127.33 14.12 127.17 27.96 118.77 35.8C114.93 39.48 108.21 41.08 101.41 40.6H96.6896V58.76H91.8896V4.76C91.8896 3.4 91.0896 2.12 90.0496 2.12H96.6896V5.88C97.0896 4.76 97.6496 3.88 98.3696 3.24C99.4896 2.12 100.93 1.48 103.01 1.32C110.29 0.439998 115.33 2.6 119.01 6.2ZM102.61 39.88C127.65 35.64 123.49 2.6 104.05 2.04C104.05 2.04 104.05 2.04 103.97 2.04C101.65 2.12 100.05 2.68 98.9296 3.72C97.4896 5.08 96.7696 7.48 96.6896 11V39.88H102.61ZM166.416 40.68H159.776V33.16C159.376 33.96 158.896 34.76 158.256 35.64C156.896 37.32 155.136 38.6 152.816 39.64C147.296 42.6 139.056 42.28 135.216 39.08C126.896 32.04 132.576 18.2 141.936 15.4C146.736 13.96 149.856 14.28 152.256 14.76C154.816 15.16 156.896 16.04 158.496 17.48C158.976 17.88 159.376 18.36 159.776 18.84C159.696 14.76 158.896 5.32 151.776 2.84L151.856 2.92C150.096 2.36 148.176 2.12 146.096 2.12C140.736 2.12 136.736 3.88 134.176 7.4L133.616 6.92C136.256 3.24 140.496 1.32 146.096 1.32C149.616 1.32 152.576 2.04 155.056 3.4C156.336 4.04 157.696 4.76 158.816 5.72C162.336 8.76 164.256 13.48 164.576 18.12V38.04C164.576 39.4 165.376 40.68 166.416 40.68ZM157.616 35.16C158.896 33.64 159.456 32.04 159.776 30.68V20.28C159.376 19.48 158.736 18.76 158.016 18.04C156.336 16.52 154.016 15.64 151.136 15.4C142.736 15.4 136.816 22.36 136.176 28.44C135.616 34.2 138.896 40.92 146.416 40.6C151.536 39.88 155.376 38.04 157.616 35.16ZM201.435 2.12H208.075C207.035 2.12 206.235 3.4 206.235 4.76V29.88C206.555 52.6 201.995 56.52 195.035 58.04C193.515 58.44 180.795 61.88 174.955 49.08L175.675 48.76C178.235 54.36 183.355 57.96 188.555 57.96C192.635 57.64 197.115 55.96 198.875 52.36C200.715 48.52 201.275 40.84 201.435 34.6C199.355 38.84 195.035 41.8 190.075 41.8C189.515 41.8 188.075 41.64 187.995 41.64C179.355 40.2 173.515 32.92 173.515 21.96V4.76C173.515 3.4 172.715 2.12 171.675 2.12L180.235 2.2C179.195 2.2 178.315 3.4 178.315 4.84V23.16C178.315 30.28 180.555 41.32 192.075 40.84C196.395 40.04 199.995 36.92 201.435 32.76V2.12ZM252.499 35.0894C252.499 34.3862 252.309 33.6904 251.928 33.002C251.562 32.3135 250.88 31.6689 249.884 31.0684C248.903 30.4678 247.475 29.9624 245.6 29.5522C244.267 29.2593 243.087 28.937 242.062 28.5854C241.051 28.2339 240.202 27.8091 239.513 27.311C238.825 26.7983 238.305 26.1904 237.953 25.4873C237.616 24.7842 237.448 23.9419 237.448 22.9604C237.448 22.1108 237.631 21.3125 237.997 20.5654C238.363 19.8184 238.898 19.1665 239.601 18.6099C240.319 18.0386 241.176 17.5918 242.172 17.2695C243.168 16.9473 244.296 16.7861 245.556 16.7861C247.357 16.7861 248.896 17.0864 250.17 17.687C251.459 18.2729 252.448 19.0859 253.136 20.126C253.825 21.1514 254.169 22.3452 254.169 23.7075H252.411C252.411 22.7847 252.147 21.9204 251.62 21.1147C251.093 20.3091 250.316 19.6572 249.291 19.1592C248.28 18.6465 247.035 18.3901 245.556 18.3901C244.062 18.3901 242.846 18.6172 241.908 19.0713C240.971 19.5254 240.282 20.104 239.843 20.8071C239.418 21.4956 239.206 22.1987 239.206 22.9165C239.206 23.4878 239.286 24.0225 239.447 24.5205C239.623 25.0039 239.953 25.4507 240.436 25.8608C240.919 26.271 241.615 26.6665 242.523 27.0474C243.432 27.4136 244.611 27.7578 246.061 28.0801C247.965 28.5049 249.518 29.0249 250.719 29.6401C251.92 30.2407 252.807 30.9805 253.378 31.8594C253.949 32.7236 254.235 33.7856 254.235 35.0454C254.235 35.9829 254.037 36.8472 253.642 37.6382C253.246 38.4146 252.675 39.0884 251.928 39.6597C251.195 40.231 250.302 40.6704 249.247 40.978C248.192 41.2856 247.021 41.4395 245.731 41.4395C243.783 41.4395 242.128 41.1318 240.766 40.5166C239.418 39.8867 238.393 39.0591 237.689 38.0337C237.001 37.0083 236.657 35.9023 236.657 34.7158H238.415C238.517 36.0195 238.942 37.0449 239.689 37.792C240.451 38.5391 241.374 39.0664 242.458 39.374C243.556 39.6816 244.647 39.8354 245.731 39.8354C247.211 39.8354 248.449 39.6084 249.445 39.1543C250.456 38.6855 251.217 38.0923 251.73 37.3745C252.243 36.6421 252.499 35.8804 252.499 35.0894ZM269.352 41.4395C267.858 41.4395 266.474 41.1538 265.199 40.5825C263.925 39.9966 262.812 39.1836 261.859 38.1436C260.907 37.0889 260.16 35.8438 259.618 34.4082C259.091 32.9727 258.827 31.3979 258.827 29.6841V28.7173C258.827 26.9448 259.091 25.3335 259.618 23.8833C260.16 22.4185 260.893 21.1587 261.815 20.104C262.738 19.0347 263.8 18.2144 265.001 17.6431C266.217 17.0718 267.514 16.7861 268.891 16.7861C270.282 16.7861 271.542 17.0425 272.67 17.5552C273.798 18.0679 274.765 18.7856 275.57 19.7085C276.376 20.6313 276.991 21.73 277.416 23.0044C277.841 24.2788 278.053 25.6851 278.053 27.2231V28.6953H259.926V27.0913H276.317V26.8057C276.303 25.3115 275.995 23.9272 275.395 22.6528C274.809 21.3784 273.966 20.353 272.868 19.5767C271.769 18.7856 270.443 18.3901 268.891 18.3901C267.646 18.3901 266.51 18.6538 265.485 19.1812C264.474 19.7085 263.603 20.4409 262.87 21.3784C262.138 22.3013 261.574 23.3926 261.178 24.6523C260.783 25.8975 260.585 27.2524 260.585 28.7173V29.6841C260.585 31.0903 260.805 32.4087 261.244 33.6392C261.684 34.8696 262.299 35.9536 263.09 36.8911C263.881 37.814 264.811 38.5391 265.88 39.0664C266.95 39.5938 268.122 39.8574 269.396 39.8574C270.773 39.8574 272.033 39.6157 273.175 39.1323C274.318 38.6489 275.358 37.7993 276.295 36.5835L277.438 37.4404C276.911 38.2021 276.273 38.8833 275.526 39.4839C274.779 40.0845 273.893 40.5605 272.868 40.9121C271.857 41.2637 270.685 41.4395 269.352 41.4395ZM285.524 7.25V41H283.766V7.25H285.524ZM295.148 7.25V41H293.39V7.25H295.148ZM311.54 41.4395C310.045 41.4395 308.661 41.1538 307.387 40.5825C306.112 39.9966 304.999 39.1836 304.047 38.1436C303.095 37.0889 302.348 35.8438 301.806 34.4082C301.278 32.9727 301.015 31.3979 301.015 29.6841V28.7173C301.015 26.9448 301.278 25.3335 301.806 23.8833C302.348 22.4185 303.08 21.1587 304.003 20.104C304.926 19.0347 305.988 18.2144 307.189 17.6431C308.405 17.0718 309.701 16.7861 311.078 16.7861C312.47 16.7861 313.729 17.0425 314.857 17.5552C315.985 18.0679 316.952 18.7856 317.758 19.7085C318.563 20.6313 319.179 21.73 319.604 23.0044C320.028 24.2788 320.241 25.6851 320.241 27.2231V28.6953H302.113V27.0913H318.505V26.8057C318.49 25.3115 318.183 23.9272 317.582 22.6528C316.996 21.3784 316.154 20.353 315.055 19.5767C313.957 18.7856 312.631 18.3901 311.078 18.3901C309.833 18.3901 308.698 18.6538 307.672 19.1812C306.662 19.7085 305.79 20.4409 305.058 21.3784C304.325 22.3013 303.761 23.3926 303.366 24.6523C302.97 25.8975 302.772 27.2524 302.772 28.7173V29.6841C302.772 31.0903 302.992 32.4087 303.432 33.6392C303.871 34.8696 304.486 35.9536 305.277 36.8911C306.068 37.814 306.999 38.5391 308.068 39.0664C309.137 39.5938 310.309 39.8574 311.583 39.8574C312.96 39.8574 314.22 39.6157 315.363 39.1323C316.505 38.6489 317.545 37.7993 318.483 36.5835L319.625 37.4404C319.098 38.2021 318.461 38.8833 317.714 39.4839C316.967 40.0845 316.081 40.5605 315.055 40.9121C314.044 41.2637 312.873 41.4395 311.54 41.4395ZM327.404 21.2686V41H325.668V17.2256H327.382L327.404 21.2686ZM336.457 17.0498L336.347 18.6318C336.083 18.5879 335.819 18.5513 335.556 18.522C335.292 18.4927 335.014 18.478 334.721 18.478C333.461 18.478 332.355 18.7271 331.403 19.2251C330.465 19.7231 329.674 20.4043 329.03 21.2686C328.4 22.1328 327.924 23.1362 327.602 24.2788C327.279 25.4214 327.111 26.6445 327.096 27.9482L326.239 28.124C326.239 26.498 326.408 24.9966 326.745 23.6196C327.096 22.2427 327.624 21.0415 328.327 20.0161C329.03 18.9907 329.916 18.1997 330.985 17.6431C332.055 17.0718 333.314 16.7861 334.765 16.7861C335.116 16.7861 335.438 16.8154 335.731 16.874C336.024 16.918 336.266 16.9766 336.457 17.0498ZM355.287 35.0894C355.287 34.3862 355.097 33.6904 354.716 33.002C354.35 32.3135 353.668 31.6689 352.672 31.0684C351.691 30.4678 350.263 29.9624 348.388 29.5522C347.055 29.2593 345.875 28.937 344.85 28.5854C343.839 28.2339 342.99 27.8091 342.301 27.311C341.613 26.7983 341.093 26.1904 340.741 25.4873C340.404 24.7842 340.236 23.9419 340.236 22.9604C340.236 22.1108 340.419 21.3125 340.785 20.5654C341.151 19.8184 341.686 19.1665 342.389 18.6099C343.107 18.0386 343.964 17.5918 344.96 17.2695C345.956 16.9473 347.084 16.7861 348.344 16.7861C350.146 16.7861 351.684 17.0864 352.958 17.687C354.247 18.2729 355.236 19.0859 355.924 20.126C356.613 21.1514 356.957 22.3452 356.957 23.7075H355.199C355.199 22.7847 354.936 21.9204 354.408 21.1147C353.881 20.3091 353.104 19.6572 352.079 19.1592C351.068 18.6465 349.823 18.3901 348.344 18.3901C346.85 18.3901 345.634 18.6172 344.696 19.0713C343.759 19.5254 343.07 20.104 342.631 20.8071C342.206 21.4956 341.994 22.1987 341.994 22.9165C341.994 23.4878 342.074 24.0225 342.235 24.5205C342.411 25.0039 342.741 25.4507 343.224 25.8608C343.708 26.271 344.403 26.6665 345.312 27.0474C346.22 27.4136 347.399 27.7578 348.849 28.0801C350.753 28.5049 352.306 29.0249 353.507 29.6401C354.708 30.2407 355.595 30.9805 356.166 31.8594C356.737 32.7236 357.023 33.7856 357.023 35.0454C357.023 35.9829 356.825 36.8472 356.43 37.6382C356.034 38.4146 355.463 39.0884 354.716 39.6597C353.983 40.231 353.09 40.6704 352.035 40.978C350.98 41.2856 349.809 41.4395 348.52 41.4395C346.571 41.4395 344.916 41.1318 343.554 40.5166C342.206 39.8867 341.181 39.0591 340.478 38.0337C339.789 37.0083 339.445 35.9023 339.445 34.7158H341.203C341.305 36.0195 341.73 37.0449 342.477 37.792C343.239 38.5391 344.162 39.0664 345.246 39.374C346.344 39.6816 347.436 39.8354 348.52 39.8354C349.999 39.8354 351.237 39.6084 352.233 39.1543C353.244 38.6855 354.005 38.0923 354.518 37.3745C355.031 36.6421 355.287 35.8804 355.287 35.0894Z" fill="black"/>
</svg>
