<svg width="208" height="62" viewBox="0 0 208 62" fill="none" xmlns="http://www.w3.org/2000/svg">
<path d="M28.4088 40.68C29.5288 40.68 30.3288 39.4 30.3288 37.96V19.64C30.3288 12.52 28.0888 1.48 16.5688 1.96C11.6888 2.84 7.84875 6.68 6.80875 11.64V38.04C6.80875 39.4 7.68875 40.68 8.72875 40.68H0.16875C1.20875 40.68 2.00875 39.4 2.00875 38.04V4.76C2.00875 3.4 1.20875 2.2 0.16875 2.2H6.80875V9.08C8.80875 4.36 13.2888 1 18.5688 1C19.1288 1 20.5688 1.16 20.7288 1.24C29.2888 2.6 35.1288 9.88 35.1288 20.84V38.04C35.1288 39.4 36.0088 40.68 37.0488 40.68H28.4088ZM63.0631 1.08C74.3431 1.08 83.4631 10.6 83.4631 21.4C83.4631 32.2 74.3431 41.72 63.0631 41.72C51.7831 41.72 42.6631 32.2 42.6631 21.4C42.6631 10.6 51.7831 1.08 63.0631 1.08ZM63.0631 40.84C71.6231 40.84 78.5831 31.8 78.5831 21.4C78.5831 11.08 71.6231 1.96 63.0631 1.96C54.4231 1.96 47.4631 11.08 47.4631 21.4C47.4631 31.8 54.4231 40.84 63.0631 40.84ZM118.66 6.2C126.98 14.12 126.82 27.96 118.42 35.8C114.58 39.48 107.86 41.08 101.06 40.6H96.34V58.76H91.54V4.76C91.54 3.4 90.74 2.12 89.7 2.12H96.34V5.88C96.74 4.76 97.3 3.88 98.02 3.24C99.14 2.12 100.58 1.48 102.66 1.32C109.94 0.439998 114.98 2.6 118.66 6.2ZM102.26 39.88C127.3 35.64 123.14 2.6 103.7 2.04C103.7 2.04 103.7 2.04 103.62 2.04C101.3 2.12 99.7 2.68 98.58 3.72C97.14 5.08 96.42 7.48 96.34 11V39.88H102.26ZM166.066 40.68H159.426V33.16C159.026 33.96 158.546 34.76 157.906 35.64C156.546 37.32 154.786 38.6 152.466 39.64C146.946 42.6 138.706 42.28 134.866 39.08C126.546 32.04 132.226 18.2 141.586 15.4C146.386 13.96 149.506 14.28 151.906 14.76C154.466 15.16 156.546 16.04 158.146 17.48C158.626 17.88 159.026 18.36 159.426 18.84C159.346 14.76 158.546 5.32 151.426 2.84L151.506 2.92C149.746 2.36 147.826 2.12 145.746 2.12C140.386 2.12 136.386 3.88 133.826 7.4L133.266 6.92C135.906 3.24 140.146 1.32 145.746 1.32C149.266 1.32 152.226 2.04 154.706 3.4C155.986 4.04 157.346 4.76 158.466 5.72C161.986 8.76 163.906 13.48 164.226 18.12V38.04C164.226 39.4 165.026 40.68 166.066 40.68ZM157.266 35.16C158.546 33.64 159.106 32.04 159.426 30.68V20.28C159.026 19.48 158.386 18.76 157.666 18.04C155.986 16.52 153.666 15.64 150.786 15.4C142.386 15.4 136.466 22.36 135.826 28.44C135.266 34.2 138.546 40.92 146.066 40.6C151.186 39.88 155.026 38.04 157.266 35.16ZM201.086 2.12H207.726C206.686 2.12 205.886 3.4 205.886 4.76V29.88C206.206 52.6 201.646 56.52 194.686 58.04C193.166 58.44 180.446 61.88 174.606 49.08L175.326 48.76C177.886 54.36 183.006 57.96 188.206 57.96C192.286 57.64 196.766 55.96 198.526 52.36C200.366 48.52 200.926 40.84 201.086 34.6C199.006 38.84 194.686 41.8 189.726 41.8C189.166 41.8 187.726 41.64 187.646 41.64C179.006 40.2 173.166 32.92 173.166 21.96V4.76C173.166 3.4 172.366 2.12 171.326 2.12L179.886 2.2C178.846 2.2 177.966 3.4 177.966 4.84V23.16C177.966 30.28 180.206 41.32 191.726 40.84C196.046 40.04 199.646 36.92 201.086 32.76V2.12Z" fill="#524841"/>
</svg>
