<svg width="800" height="1200" viewBox="0 0 800 1200" fill="none" xmlns="http://www.w3.org/2000/svg">
<g clip-path="url(#clip0_702_48)">
<rect width="800" height="1200" fill="white"/>
<path d="M800 0H0V1200H800V0Z" fill="#C4C4C4"/>
<path d="M434.395 487.833H364.604L329.708 529.708H287.833C280.429 529.708 273.328 532.649 268.093 537.885C262.857 543.12 259.916 550.221 259.916 557.625V683.25C259.916 690.654 262.857 697.754 268.093 702.99C273.328 708.225 280.429 711.166 287.833 711.166H511.166C518.57 711.166 525.671 708.225 530.906 702.99C536.141 697.754 539.083 690.654 539.083 683.25V557.625C539.083 550.221 536.141 543.12 530.906 537.885C525.671 532.649 518.57 529.708 511.166 529.708H469.291L434.395 487.833Z" stroke="white" stroke-width="2" stroke-linecap="round" stroke-linejoin="round"/>
<path d="M399.5 655.333C422.627 655.333 441.375 636.585 441.375 613.458C441.375 590.331 422.627 571.583 399.5 571.583C376.373 571.583 357.625 590.331 357.625 613.458C357.625 636.585 376.373 655.333 399.5 655.333Z" stroke="white" stroke-width="2" stroke-linecap="round" stroke-linejoin="round"/>
</g>
<defs>
<clipPath id="clip0_702_48">
<rect width="800" height="1200" fill="white"/>
</clipPath>
</defs>
</svg>
