<svg width="70" height="70" viewBox="0 0 70 70" fill="none" xmlns="http://www.w3.org/2000/svg">
<rect x="1.26128" y="1.26128" width="67.4774" height="67.4774" rx="7.56765" stroke="#C3C3C3" stroke-width="2.52255"/>
<line x1="3.71265" y1="2.29848" x2="66.7127" y2="66.2985" stroke="#C3C3C3" stroke-width="2"/>
<line x1="65.7014" y1="3.71274" x2="2.70143" y2="65.7127" stroke="#C3C3C3" stroke-width="2"/>
<path d="M33.9967 36.7677V38.8173H23.6602L23.5518 37.2407L29.6315 27.653H31.7107L29.464 31.4664L26.2025 36.7677H33.9967ZM32.2921 27.653V42H29.6808V27.653H32.2921ZM45.2792 39.9504V42H35.5635V40.246L40.2243 35.2108C40.7104 34.659 41.0947 34.1794 41.3772 33.7721C41.6596 33.3649 41.86 32.997 41.9783 32.6685C42.1031 32.3335 42.1655 32.0149 42.1655 31.7127C42.1655 31.2726 42.0866 30.8883 41.929 30.5598C41.7713 30.2248 41.5414 29.9653 41.2392 29.7814C40.9436 29.5975 40.579 29.5055 40.1455 29.5055C39.6659 29.5055 39.2553 29.6172 38.9137 29.8405C38.5787 30.0573 38.3225 30.3595 38.1452 30.7471C37.9744 31.1346 37.889 31.5781 37.889 32.0773H35.2777C35.2777 31.2299 35.4748 30.458 35.8689 29.7617C36.2631 29.0588 36.828 28.4971 37.5638 28.0767C38.2995 27.6563 39.1732 27.4461 40.1849 27.4461C41.1702 27.4461 42.0045 27.6103 42.6877 27.9388C43.3709 28.2606 43.8899 28.7205 44.2446 29.3183C44.5993 29.9161 44.7767 30.6288 44.7767 31.4565C44.7767 31.9164 44.7012 32.3696 44.5501 32.8163C44.399 33.263 44.1855 33.7065 43.9096 34.1466C43.6402 34.5802 43.3184 35.0203 42.9439 35.467C42.5695 35.9137 42.1523 36.3702 41.6925 36.8367L38.894 39.9504H45.2792Z" fill="black"/>
</svg>
