<svg width="70" height="70" viewBox="0 0 70 70" fill="none" xmlns="http://www.w3.org/2000/svg">
<rect x="1.26128" y="1.26128" width="67.4774" height="67.4774" rx="7.56765" stroke="#C3C3C3" stroke-width="2.52255"/>
<path d="M26.8824 33.6736H28.3506C28.8695 33.6736 29.2965 33.5849 29.6315 33.4076C29.9731 33.2236 30.2261 32.974 30.3903 32.6587C30.5611 32.3368 30.6465 31.9656 30.6465 31.5452C30.6465 31.1314 30.5709 30.7733 30.4198 30.4712C30.2688 30.1624 30.0388 29.9259 29.7301 29.7617C29.4279 29.5909 29.0403 29.5055 28.5673 29.5055C28.1863 29.5055 27.8349 29.581 27.513 29.7321C27.1977 29.8832 26.9448 30.1 26.7543 30.3825C26.5703 30.6584 26.4784 30.9901 26.4784 31.3777H23.8671C23.8671 30.6025 24.0708 29.9226 24.4781 29.338C24.8919 28.7468 25.4503 28.2836 26.1532 27.9486C26.8561 27.6136 27.6411 27.4461 28.5082 27.4461C29.4542 27.4461 30.2819 27.6037 30.9914 27.919C31.7074 28.2278 32.2625 28.6843 32.6566 29.2887C33.0574 29.8931 33.2577 30.642 33.2577 31.5354C33.2577 31.9624 33.1559 32.3893 32.9523 32.8163C32.7552 33.2368 32.4628 33.6178 32.0753 33.9594C31.6943 34.2944 31.2246 34.567 30.6662 34.7772C30.1144 34.9809 29.4805 35.0827 28.7644 35.0827H26.8824V33.6736ZM26.8824 35.6838V34.2944H28.7644C29.5724 34.2944 30.272 34.3896 30.8633 34.5802C31.4611 34.7641 31.9537 35.0269 32.3413 35.3685C32.7289 35.7035 33.0147 36.0943 33.1986 36.541C33.3891 36.9877 33.4844 37.4673 33.4844 37.9797C33.4844 38.6497 33.3595 39.2475 33.1099 39.7731C32.8603 40.292 32.5088 40.7322 32.0556 41.0935C31.6089 41.4548 31.0833 41.7307 30.479 41.9212C29.8746 42.1051 29.221 42.1971 28.5181 42.1971C27.9071 42.1971 27.3126 42.115 26.7346 41.9507C26.163 41.7799 25.6474 41.527 25.1875 41.192C24.7277 40.8504 24.3631 40.4234 24.0938 39.911C23.8244 39.3921 23.6898 38.791 23.6898 38.1078H26.301C26.301 38.5019 26.3962 38.8534 26.5868 39.1621C26.7838 39.4709 27.0532 39.7139 27.3948 39.8913C27.7429 40.0621 28.1338 40.1475 28.5673 40.1475C29.0469 40.1475 29.4575 40.0621 29.7991 39.8913C30.1472 39.7139 30.4133 39.4643 30.5972 39.1424C30.7811 38.814 30.8731 38.4231 30.8731 37.9698C30.8731 37.4312 30.7713 36.9943 30.5677 36.6593C30.364 36.3243 30.0717 36.0779 29.6907 35.9203C29.3162 35.7626 28.8695 35.6838 28.3506 35.6838H26.8824ZM45.0822 38.0782C45.0822 38.9716 44.872 39.7271 44.4515 40.3446C44.0377 40.9555 43.4694 41.4186 42.7468 41.7339C42.0308 42.0427 41.2162 42.1971 40.3031 42.1971C39.3966 42.1971 38.5787 42.0427 37.8495 41.7339C37.1269 41.4186 36.5521 40.9555 36.1251 40.3446C35.7047 39.7271 35.4945 38.9716 35.4945 38.0782C35.4945 37.4804 35.6128 36.9385 35.8492 36.4524C36.0923 35.9662 36.4273 35.5491 36.8543 35.2009C37.2813 34.8462 37.7871 34.5769 38.3718 34.3929C38.9564 34.2024 39.5937 34.1072 40.2834 34.1072C41.2031 34.1072 42.0242 34.2747 42.7468 34.6097C43.476 34.9382 44.0475 35.4013 44.4614 35.9991C44.8752 36.5903 45.0822 37.2834 45.0822 38.0782ZM42.4611 37.9206C42.4611 37.4607 42.3691 37.0633 42.1852 36.7283C42.0078 36.3867 41.7549 36.1239 41.4264 35.94C41.098 35.756 40.717 35.6641 40.2834 35.6641C39.8433 35.6641 39.459 35.756 39.1305 35.94C38.8086 36.1239 38.5557 36.3867 38.3718 36.7283C38.1944 37.0633 38.1057 37.4607 38.1057 37.9206C38.1057 38.387 38.1944 38.7877 38.3718 39.1227C38.5557 39.4512 38.8119 39.7041 39.1404 39.8815C39.4688 40.0588 39.8564 40.1475 40.3031 40.1475C40.7498 40.1475 41.1341 40.0588 41.456 39.8815C41.7779 39.7041 42.0242 39.4512 42.195 39.1227C42.3724 38.7877 42.4611 38.387 42.4611 37.9206ZM44.7669 31.4368C44.7669 32.1594 44.5763 32.8032 44.1953 33.3681C43.8143 33.9265 43.2855 34.3634 42.6089 34.6787C41.9388 34.994 41.1702 35.1517 40.3031 35.1517C39.436 35.1517 38.6608 34.994 37.9776 34.6787C37.301 34.3634 36.7689 33.9265 36.3813 33.3681C36.0003 32.8032 35.8098 32.1594 35.8098 31.4368C35.8098 30.5828 36.0036 29.8602 36.3912 29.269C36.7788 28.6712 37.3076 28.2179 37.9776 27.9092C38.6543 27.6004 39.4229 27.4461 40.2834 27.4461C41.1571 27.4461 41.9323 27.6004 42.6089 27.9092C43.2855 28.2179 43.8143 28.6712 44.1953 29.269C44.5763 29.8602 44.7669 30.5828 44.7669 31.4368ZM42.1655 31.5452C42.1655 31.1379 42.0899 30.7832 41.9388 30.481C41.7877 30.1723 41.571 29.9325 41.2885 29.7617C41.0126 29.5909 40.6776 29.5055 40.2834 29.5055C39.9024 29.5055 39.5739 29.5876 39.298 29.7518C39.0221 29.9161 38.8086 30.1526 38.6576 30.4613C38.5065 30.7635 38.4309 31.1248 38.4309 31.5452C38.4309 31.9591 38.5065 32.3204 38.6576 32.6291C38.8086 32.9379 39.0221 33.1809 39.298 33.3583C39.5805 33.5291 39.9155 33.6145 40.3031 33.6145C40.6907 33.6145 41.0224 33.5291 41.2983 33.3583C41.5742 33.1809 41.7877 32.9379 41.9388 32.6291C42.0899 32.3204 42.1655 31.9591 42.1655 31.5452Z" fill="black"/>
</svg>
