<svg width="70" height="70" viewBox="0 0 70 70" fill="none" xmlns="http://www.w3.org/2000/svg">
<rect x="1.26128" y="1.26128" width="67.4774" height="67.4774" rx="7.56765" stroke="#C3C3C3" stroke-width="2.52255"/>
<path d="M26.8824 33.6736H28.3506C28.8695 33.6736 29.2965 33.5849 29.6315 33.4076C29.9731 33.2236 30.2261 32.974 30.3903 32.6587C30.5611 32.3368 30.6465 31.9656 30.6465 31.5452C30.6465 31.1314 30.5709 30.7733 30.4198 30.4712C30.2688 30.1624 30.0388 29.9259 29.7301 29.7617C29.4279 29.5909 29.0403 29.5055 28.5673 29.5055C28.1863 29.5055 27.8349 29.581 27.513 29.7321C27.1977 29.8832 26.9448 30.1 26.7543 30.3825C26.5703 30.6584 26.4784 30.9901 26.4784 31.3777H23.8671C23.8671 30.6025 24.0708 29.9226 24.4781 29.338C24.8919 28.7468 25.4503 28.2836 26.1532 27.9486C26.8561 27.6136 27.6411 27.4461 28.5082 27.4461C29.4542 27.4461 30.2819 27.6037 30.9914 27.919C31.7074 28.2278 32.2625 28.6843 32.6566 29.2887C33.0574 29.8931 33.2577 30.642 33.2577 31.5354C33.2577 31.9624 33.1559 32.3893 32.9523 32.8163C32.7552 33.2368 32.4628 33.6178 32.0753 33.9594C31.6943 34.2944 31.2246 34.567 30.6662 34.7772C30.1144 34.9809 29.4805 35.0827 28.7644 35.0827H26.8824V33.6736ZM26.8824 35.6838V34.2944H28.7644C29.5724 34.2944 30.272 34.3896 30.8633 34.5802C31.4611 34.7641 31.9537 35.0269 32.3413 35.3685C32.7289 35.7035 33.0147 36.0943 33.1986 36.541C33.3891 36.9877 33.4844 37.4673 33.4844 37.9797C33.4844 38.6497 33.3595 39.2475 33.1099 39.7731C32.8603 40.292 32.5088 40.7322 32.0556 41.0935C31.6089 41.4548 31.0833 41.7307 30.479 41.9212C29.8746 42.1051 29.221 42.1971 28.5181 42.1971C27.9071 42.1971 27.3126 42.115 26.7346 41.9507C26.163 41.7799 25.6474 41.527 25.1875 41.192C24.7277 40.8504 24.3631 40.4234 24.0938 39.911C23.8244 39.3921 23.6898 38.791 23.6898 38.1078H26.301C26.301 38.5019 26.3962 38.8534 26.5868 39.1621C26.7838 39.4709 27.0532 39.7139 27.3948 39.8913C27.7429 40.0621 28.1338 40.1475 28.5673 40.1475C29.0469 40.1475 29.4575 40.0621 29.7991 39.8913C30.1472 39.7139 30.4133 39.4643 30.5972 39.1424C30.7811 38.814 30.8731 38.4231 30.8731 37.9698C30.8731 37.4312 30.7713 36.9943 30.5677 36.6593C30.364 36.3243 30.0717 36.0779 29.6907 35.9203C29.3162 35.7626 28.8695 35.6838 28.3506 35.6838H26.8824ZM45.5256 36.7677V38.8173H35.189L35.0807 37.2407L41.1604 27.653H43.2395L40.9929 31.4664L37.7313 36.7677H45.5256ZM43.8209 27.653V42H41.2097V27.653H43.8209Z" fill="black"/>
</svg>
