<svg width="70" height="70" viewBox="0 0 70 70" fill="none" xmlns="http://www.w3.org/2000/svg">
<rect x="1.26128" y="1.26128" width="67.4774" height="67.4774" rx="7.56765" stroke="#C3C3C3" stroke-width="2.52255"/>
<line x1="3.71265" y1="2.29848" x2="66.7127" y2="66.2985" stroke="#C3C3C3" stroke-width="2"/>
<line x1="65.7014" y1="3.71274" x2="2.70143" y2="65.7127" stroke="#C3C3C3" stroke-width="2"/>
<path d="M26.8824 33.6736H28.3506C28.8695 33.6736 29.2965 33.5849 29.6315 33.4076C29.9731 33.2236 30.2261 32.974 30.3903 32.6587C30.5611 32.3368 30.6465 31.9656 30.6465 31.5452C30.6465 31.1314 30.5709 30.7733 30.4198 30.4712C30.2688 30.1624 30.0388 29.9259 29.7301 29.7617C29.4279 29.5909 29.0403 29.5055 28.5673 29.5055C28.1863 29.5055 27.8349 29.581 27.513 29.7321C27.1977 29.8832 26.9448 30.1 26.7543 30.3825C26.5703 30.6584 26.4784 30.9901 26.4784 31.3777H23.8671C23.8671 30.6025 24.0708 29.9226 24.4781 29.338C24.8919 28.7468 25.4503 28.2836 26.1532 27.9486C26.8561 27.6136 27.6411 27.4461 28.5082 27.4461C29.4542 27.4461 30.2819 27.6037 30.9914 27.919C31.7074 28.2278 32.2625 28.6843 32.6566 29.2887C33.0574 29.8931 33.2577 30.642 33.2577 31.5354C33.2577 31.9624 33.1559 32.3893 32.9523 32.8163C32.7552 33.2368 32.4628 33.6178 32.0753 33.9594C31.6943 34.2944 31.2246 34.567 30.6662 34.7772C30.1144 34.9809 29.4805 35.0827 28.7644 35.0827H26.8824V33.6736ZM26.8824 35.6838V34.2944H28.7644C29.5724 34.2944 30.272 34.3896 30.8633 34.5802C31.4611 34.7641 31.9537 35.0269 32.3413 35.3685C32.7289 35.7035 33.0147 36.0943 33.1986 36.541C33.3891 36.9877 33.4844 37.4673 33.4844 37.9797C33.4844 38.6497 33.3595 39.2475 33.1099 39.7731C32.8603 40.292 32.5088 40.7322 32.0556 41.0935C31.6089 41.4548 31.0833 41.7307 30.479 41.9212C29.8746 42.1051 29.221 42.1971 28.5181 42.1971C27.9071 42.1971 27.3126 42.115 26.7346 41.9507C26.163 41.7799 25.6474 41.527 25.1875 41.192C24.7277 40.8504 24.3631 40.4234 24.0938 39.911C23.8244 39.3921 23.6898 38.791 23.6898 38.1078H26.301C26.301 38.5019 26.3962 38.8534 26.5868 39.1621C26.7838 39.4709 27.0532 39.7139 27.3948 39.8913C27.7429 40.0621 28.1338 40.1475 28.5673 40.1475C29.0469 40.1475 29.4575 40.0621 29.7991 39.8913C30.1472 39.7139 30.4133 39.4643 30.5972 39.1424C30.7811 38.814 30.8731 38.4231 30.8731 37.9698C30.8731 37.4312 30.7713 36.9943 30.5677 36.6593C30.364 36.3243 30.0717 36.0779 29.6907 35.9203C29.3162 35.7626 28.8695 35.6838 28.3506 35.6838H26.8824ZM42.806 27.5347H43.1607V29.6336H42.9932C42.1983 29.6336 41.4987 29.7551 40.8943 29.9982C40.2966 30.2412 39.7973 30.5828 39.3966 31.023C39.0024 31.4565 38.7035 31.9722 38.4999 32.57C38.2962 33.1612 38.1944 33.8083 38.1944 34.5112V36.8367C38.1944 37.3819 38.2503 37.8614 38.3619 38.2753C38.4802 38.6826 38.6411 39.0275 38.8448 39.3099C39.055 39.5858 39.298 39.7928 39.5739 39.9307C39.8564 40.0687 40.1652 40.1376 40.5002 40.1376C40.8352 40.1376 41.1374 40.0687 41.4067 39.9307C41.6761 39.7928 41.906 39.599 42.0965 39.3494C42.2936 39.0932 42.4414 38.7943 42.5399 38.4527C42.645 38.1111 42.6976 37.7366 42.6976 37.3293C42.6976 36.9286 42.6483 36.5575 42.5498 36.2159C42.4512 35.8743 42.3067 35.5754 42.1162 35.3192C41.9257 35.0564 41.6892 34.8561 41.4067 34.7181C41.1308 34.5736 40.8155 34.5013 40.4608 34.5013C40.0009 34.5013 39.5904 34.6097 39.2291 34.8265C38.8678 35.0367 38.582 35.3126 38.3718 35.6542C38.1616 35.9958 38.0466 36.3571 38.0269 36.7381L37.1499 36.3046C37.1828 35.7462 37.301 35.2338 37.5047 34.7674C37.7149 34.301 37.9941 33.8937 38.3422 33.5455C38.697 33.1973 39.1141 32.928 39.5937 32.7375C40.0798 32.547 40.6184 32.4518 41.2097 32.4518C41.8929 32.4518 42.4906 32.5831 43.003 32.8459C43.5154 33.1021 43.9391 33.4535 44.2742 33.9002C44.6158 34.3469 44.872 34.8626 45.0428 35.4473C45.2136 36.0254 45.299 36.6363 45.299 37.2801C45.299 37.9698 45.1873 38.6136 44.9639 39.2114C44.7471 39.8092 44.4318 40.3314 44.018 40.7781C43.6041 41.2248 43.1049 41.573 42.5202 41.8226C41.9356 42.0723 41.2786 42.1971 40.5495 42.1971C39.7809 42.1971 39.0911 42.0526 38.4802 41.7635C37.8758 41.4745 37.3569 41.0738 36.9233 40.5614C36.4897 40.049 36.158 39.4512 35.9281 38.768C35.6982 38.0848 35.5832 37.3458 35.5832 36.5509V35.5064C35.5832 34.3831 35.7376 33.3386 36.0463 32.3729C36.3551 31.4073 36.8116 30.5631 37.416 29.8405C38.0269 29.1113 38.7824 28.5464 39.6823 28.1457C40.5823 27.7384 41.6235 27.5347 42.806 27.5347Z" fill="black"/>
</svg>
