<svg width="70" height="70" viewBox="0 0 70 70" fill="none" xmlns="http://www.w3.org/2000/svg">
<rect x="1.26128" y="1.26128" width="67.4774" height="67.4774" rx="7.56765" stroke="#C3C3C3" stroke-width="2.52255"/>
<path d="M33.9967 36.7677V38.8173H23.6602L23.5518 37.2407L29.6315 27.653H31.7107L29.464 31.4664L26.2025 36.7677H33.9967ZM32.2921 27.653V42H29.6808V27.653H32.2921ZM45.0625 33.5948V36.0089C45.0625 37.1126 44.9508 38.0552 44.7274 38.837C44.5041 39.6187 44.1822 40.2592 43.7618 40.7584C43.3413 41.2511 42.8388 41.6157 42.2542 41.8522C41.6695 42.0821 41.0192 42.1971 40.3031 42.1971C39.7316 42.1971 39.1995 42.1248 38.7068 41.9803C38.2141 41.8292 37.7707 41.5993 37.3766 41.2905C36.989 40.9752 36.654 40.5745 36.3715 40.0884C36.0956 39.6023 35.8821 39.0209 35.731 38.3443C35.5865 37.6677 35.5142 36.8892 35.5142 36.0089V33.5948C35.5142 32.4912 35.6259 31.5518 35.8492 30.7766C36.0792 30.0015 36.4043 29.3675 36.8248 28.8749C37.2452 28.3822 37.7477 28.0242 38.3324 27.8008C38.917 27.5709 39.5674 27.4559 40.2834 27.4559C40.8615 27.4559 41.3936 27.5282 41.8797 27.6727C42.3724 27.8172 42.8125 28.0439 43.2001 28.3526C43.5943 28.6548 43.9293 29.0489 44.2052 29.5351C44.4811 30.0146 44.6913 30.5927 44.8358 31.2693C44.9869 31.9394 45.0625 32.7145 45.0625 33.5948ZM42.4611 36.3637V33.2302C42.4611 32.6784 42.4282 32.1988 42.3625 31.7916C42.3034 31.3777 42.2147 31.0262 42.0965 30.7372C41.9783 30.4482 41.8304 30.215 41.6531 30.0376C41.4757 29.8537 41.2721 29.719 41.0421 29.6336C40.8122 29.5482 40.5593 29.5055 40.2834 29.5055C39.9418 29.5055 39.6364 29.5745 39.367 29.7124C39.0977 29.8438 38.871 30.054 38.6871 30.3431C38.5032 30.6321 38.3619 31.0164 38.2634 31.4959C38.1714 31.9689 38.1255 32.547 38.1255 33.2302V36.3637C38.1255 36.9155 38.155 37.3983 38.2141 37.8122C38.2798 38.226 38.3718 38.5808 38.49 38.8764C38.6149 39.172 38.7627 39.415 38.9335 39.6055C39.1108 39.7895 39.3145 39.9274 39.5444 40.0194C39.7743 40.1048 40.0272 40.1475 40.3031 40.1475C40.6513 40.1475 40.9568 40.0785 41.2195 39.9406C41.4889 39.8026 41.7155 39.5858 41.8994 39.2902C42.0834 38.988 42.2213 38.5972 42.3133 38.1176C42.4118 37.6315 42.4611 37.0469 42.4611 36.3637Z" fill="black"/>
</svg>
