<svg width="25" height="30" viewBox="0 0 25 30" fill="none" xmlns="http://www.w3.org/2000/svg">
<g clip-path="url(#clip0_0_67)">
<path d="M20.8667 15.9076C20.9088 20.439 24.842 21.947 24.8855 21.9662C24.8522 22.0725 24.257 24.115 22.8134 26.2249C21.5654 28.049 20.2701 29.8663 18.2296 29.9039C16.2248 29.9409 15.5801 28.715 13.2879 28.715C10.9964 28.715 10.2801 29.8663 8.38216 29.9409C6.41264 30.0154 4.91283 27.9685 3.65454 26.151C1.08311 22.4336 -0.881935 15.6463 1.75664 11.0648C3.0674 8.78952 5.40997 7.34886 7.95245 7.3119C9.88645 7.27505 11.712 8.61305 12.8943 8.61305C14.0758 8.61305 16.2942 7.004 18.6263 7.24029C19.6024 7.28095 22.343 7.63457 24.1027 10.2104C23.9608 10.2983 20.8327 12.1193 20.8667 15.9077M17.0988 4.78086C18.1445 3.51514 18.8483 1.75324 18.6563 0C17.149 0.0605714 15.3265 1.00438 14.2454 2.26933C13.2765 3.38962 12.4281 5.18257 12.657 6.90105C14.337 7.03105 16.0531 6.04733 17.0988 4.78086Z" fill="black"/>
</g>
<defs>
<clipPath id="clip0_0_67">
<rect width="24.39" height="30" fill="white" transform="translate(0.5)"/>
</clipPath>
</defs>
</svg>
